# xmcd CD database file generated by Grip 2.96
# 
# Track frame offsets:
#       150
#       11700
#       24787
#       39105
#       51372
#       64615
#       74230
#       86935
#       98127
#       108452
# 
# Disc length: 1554 seconds
# 
# Revision: 0
# Processed by: cddbd v1.4PL0 Copyright (c) Steve Scherf et al.
# Submitted via: Grip 2.96
# 
DISCID=8206100a
DTITLE=Freddy Fender and Johnny Rodriguez - Back to Back
DYEAR=1900
DGENRE=
TTITLE0=Before the next teardrop falls
TTITLE1=Wasted days and wasted nights
TTITLE2=Wild side of life
TTITLE3=Vaya con dios
TTITLE4=Hillbilly Heart
TTITLE5=Ridin my thumb to mexico
TTITLE6=Something
TTITLE7=Pass me by
TTITLE8=the rains come
TTITLE9=That's the way love goes
EXTD=
EXTT0=
EXTT1=
EXTT2=
EXTT3=
EXTT4=
EXTT5=
EXTT6=
EXTT7=
EXTT8=
EXTT9=
PLAYORDER=
